<svg width="391" height="200" xmlns="http://www.w3.org/2000/svg" xmlns:xlink="http://www.w3.org/1999/xlink" xml:space="preserve" overflow="hidden"><defs><clipPath id="clip0"><rect x="0" y="0" width="391" height="200"/></clipPath><clipPath id="clip1"><rect x="8" y="9" width="372" height="185"/></clipPath><clipPath id="clip2"><rect x="8" y="9" width="372" height="185"/></clipPath><clipPath id="clip3"><rect x="8" y="9" width="372" height="185"/></clipPath><clipPath id="clip4"><rect x="8" y="9" width="372" height="185"/></clipPath></defs><g clip-path="url(#clip0)"><path d="M0.205366 6.41724 0.437993 7.27506C0.452532 7.38894 0.47313 7.46163 0.499786 7.49314 0.52644 7.52585 0.55673 7.54222 0.590654 7.54222 0.658505 7.54222 0.736046 7.46103 0.823282 7.29868 0.887497 7.18116 0.940201 7.10604 0.981396 7.07332 1.0238 7.04182 1.08499 7.02001 1.16495 7.00789L1.22129 7.01335 1.46483 6.99154 2.80607 6.97519 4.39084 6.98063 4.85609 6.98063 5.73571 6.99698C5.77448 6.99698 5.82174 6.99336 5.87747 6.98609 6.13554 6.96307 6.29487 6.95155 6.35544 6.95155 6.41239 6.95155 6.45782 6.97034 6.49175 7.00789 6.50265 7.02364 6.56505 7.15268 6.67895 7.395 6.72863 7.50404 6.7892 7.55857 6.86069 7.55857 6.89098 7.55857 6.92914 7.5513 6.97519 7.53676 6.99336 7.46042 7.00244 7.39197 7.00244 7.33139L6.99698 7.10421 7.00244 6.62261C7.00244 6.50508 6.99336 6.12646 6.97519 5.48673 6.97519 5.44433 6.9673 5.40616 6.95155 5.37223 6.91037 5.34558 6.87462 5.33226 6.84433 5.33226 6.81403 5.33226 6.78739 5.34618 6.76436 5.37405 6.74134 5.40313 6.71287 5.49157 6.67895 5.6394 6.60382 5.97986 6.50932 6.22399 6.39543 6.3718 6.3191 6.46632 6.21005 6.53416 6.0683 6.57535 5.92654 6.61776 5.58668 6.63896 5.04873 6.63896 4.61741 6.63896 4.29754 6.63169 4.08914 6.61715 4.08189 6.4657 4.07825 6.32758 4.07825 6.20278L4.12368 2.67521C4.12368 2.53467 4.1158 2.26933 4.10005 1.87919L4.10551 1.12497 4.10005 0.705151C4.10005 0.571876 4.12247 0.476765 4.1673 0.41982 4.21334 0.362874 4.33693 0.308352 4.53804 0.256253 4.88578 0.169018 5.1184 0.115708 5.23593 0.0963222 5.30862 0.0890526 5.36738 0.0739076 5.41221 0.0508872L5.41221-0.119948 4.6053-0.0963222C4.16306-0.0926874 3.82987-0.0836004 3.60572-0.0690612L2.77699-0.107227 2.16997-0.141757C1.99914-0.141757 1.89495-0.138122 1.85739-0.130853L1.77741-0.0963222C1.78469-0.009087 1.80165 0.0466466 1.82831 0.0708786 1.85496 0.0951106 1.92523 0.115102 2.03912 0.130853 2.19784 0.153874 2.38503 0.194462 2.6007 0.252619 2.81636 0.311987 2.95873 0.371962 3.02778 0.432541 3.06535 0.466466 3.09139 0.522805 3.10593 0.60156 3.14107 0.768761 3.15864 1.0965 3.15864 1.58477L3.15864 2.54982 3.13501 4.658 3.1132 5.11234 3.10593 6.62806C2.86847 6.65471 2.56375 6.66804 2.19179 6.66804 1.64656 6.66804 1.31519 6.63412 1.19767 6.56626 1.01229 6.45965 0.736046 6.14887 0.368933 5.63394 0.247772 5.44129 0.141757 5.34497 0.0508872 5.34497L0 5.35588C-0.0157508 5.3789-0.0236262 5.3995-0.0236262 5.41767-0.0236262 5.46372 0.0072696 5.60001 0.0690612 5.82659 0.14418 6.11858 0.189616 6.31547 0.205366 6.41724Z" transform="matrix(1.00089 0 0 -1 360.27 137.043)"/><path d="M0.806926 6.98063C0.806926 7.10542 0.854784 7.21326 0.950501 7.30413 1.04743 7.395 1.16435 7.44044 1.30126 7.44044 1.44059 7.44044 1.56296 7.38894 1.66838 7.28595 1.77499 7.18418 1.82831 7.07453 1.82831 6.95701 1.82831 6.83948 1.77499 6.72863 1.66838 6.62442 1.56296 6.52023 1.44059 6.46813 1.30126 6.46813 1.16071 6.46813 1.04319 6.51538 0.948683 6.60988 0.854178 6.7056 0.806926 6.82918 0.806926 6.98063ZM0.328949 4.03827 0.334402 4.20364C0.581568 4.27513 0.714238 4.31633 0.732413 4.32723 0.869323 4.38781 1.01229 4.48049 1.16132 4.6053 1.31155 4.7313 1.43757 4.87184 1.53934 5.02693 1.58417 5.03419 1.61991 5.03783 1.64656 5.03783L1.71563 5.03238C1.73016 4.85064 1.73743 4.71797 1.73743 4.63438 1.73743 4.61499 1.73379 4.52957 1.72654 4.37811L1.72654 4.07825 1.73198 2.44259 1.71563 0.710604C1.712 0.570058 1.73441 0.471918 1.78287 0.416184 1.83254 0.361663 1.97854 0.300476 2.22087 0.232627 2.37231 0.191432 2.4856 0.15569 2.56071 0.1254 2.57283 0.0987454 2.57889 0.075725 2.57889 0.0563394 2.57889 0.0345306 2.56919 0.006058 2.54982-0.0290784 2.40199-0.0254436 2.21298-0.0157508 1.98279 0 1.66776 0.0266552 1.45938 0.0399828 1.3576 0.0399828 1.30792 0.0399828 1.00502 0.03029 0.448898 0.0109044 0.335008 0.0072696 0.225358-0.0018174 0.119948-0.0163566 0.100563-0.0163566 0.0702728-0.0109044 0.0290784 0 0.0096928 0.0266552 0 0.0496756 0 0.0690612 0 0.12116 0.0357422 0.162354 0.107227 0.192644 0.122977 0.201126 0.316228 0.244744 0.686977 0.323497 0.808138 0.346518 0.887497 0.384683 0.925056 0.437993 0.990483 0.516748 1.0232 0.64336 1.0232 0.81783 1.03047 1.10983 1.0341 1.90888 1.0341 3.21498 1.0341 3.47547 1.02259 3.63843 0.99957 3.70387 0.980184 3.74869 0.929903 3.80019 0.848726 3.85834 0.767549 3.91771 0.59429 3.97768 0.328949 4.03827Z" transform="matrix(1.00089 0 0 -1 367.427 137.043)"/><path d="M0.227174 0.198096C0.287755 0.240503 0.371356 0.268975 0.477977 0.283514 0.629426 0.3029 0.746346 0.33319 0.828734 0.374384 0.897796 0.431329 0.943231 0.513113 0.96504 0.619733 0.991694 0.755432 1.00502 1.23402 1.00502 2.05548 1.00502 2.86241 0.98079 3.38339 0.932326 3.61845 0.848726 3.67054 0.740287 3.71174 0.607012 3.74203 0.565817 3.75051 0.479188 3.77171 0.347124 3.80564L0.347124 3.99283C0.570058 4.05704 0.750586 4.14004 0.888708 4.24182 1.02683 4.3448 1.21887 4.54956 1.46483 4.85609L1.49935 4.85609C1.52237 4.85609 1.55811 4.85791 1.60658 4.86155 1.63687 4.85791 1.66171 4.84822 1.68109 4.83247L1.67564 4.18548C1.67564 4.05341 1.67928 3.91165 1.68655 3.7602 2.09244 4.12732 2.45592 4.38478 2.77699 4.5326 2.99629 4.63074 3.24466 4.67981 3.52212 4.67981 3.85047 4.67981 4.11096 4.61741 4.3036 4.49261 4.49746 4.36782 4.68162 4.14246 4.85609 3.81654 5.19291 4.14973 5.49824 4.38236 5.77206 4.51442 6.0471 4.64769 6.32455 4.71433 6.60443 4.71433 7.02849 4.71433 7.37683 4.57622 7.64943 4.29997 7.91841 4.01888 8.05714 3.60814 8.06563 3.06777L8.06563 2.59525 8.07107 2.07911 8.06563 0.750586C8.06078 0.59429 8.09471 0.476765 8.1674 0.398011 8.19769 0.385895 8.31279 0.35197 8.5127 0.296237 8.6387 0.2611 8.71261 0.233839 8.73443 0.214453 8.75745 0.196279 8.76895 0.17023 8.76895 0.136306 8.76895 0.0951106 8.75745 0.0460408 8.73443-0.0109044L8.69444-0.0109044 8.12196 0.0236262C8.05411 0.027261 7.94628 0.0290784 7.79847 0.0290784 7.61673 0.0290784 7.3629 0.021203 7.03697 0.0054522L6.748 0.0054522C6.7056 0.0054522 6.62382 0.0036348 6.50265 0 6.49902 0.0339248 6.49721 0.0642148 6.49721 0.09087 6.49721 0.12116 6.51054 0.159325 6.53719 0.205366 6.63896 0.250195 6.7789 0.286543 6.95701 0.31441 7.13512 0.343488 7.24598 0.394981 7.2896 0.468889 7.33321 0.542797 7.35502 0.837216 7.35502 1.35215 7.35502 2.46924 7.34169 3.11684 7.31503 3.29494 7.27021 3.57846 7.15026 3.80079 6.95519 3.96193 6.76012 4.12307 6.51477 4.20364 6.21915 4.20364 5.99136 4.20364 5.76964 4.14367 5.55397 4.02373 5.33831 3.90498 5.12628 3.72628 4.91788 3.48759L4.91244 3.35129 4.91244 2.48257 4.89063 1.80649C4.89063 1.1171 4.89729 0.725143 4.91062 0.630638 4.92394 0.536134 4.95605 0.467071 5.00694 0.423454 5.05783 0.379836 5.20624 0.341065 5.4522 0.30714 5.56245 0.29139 5.64787 0.276245 5.70845 0.261706 5.75328 0.224146 5.77569 0.175076 5.77569 0.114496 5.77569 0.0648206 5.75873 0.03029 5.72482 0.0109044L5.62849 0.0109044 5.34497 0.0163566 3.69114 0.0163566 3.23679 0.0109044C3.22952 0.0678496 3.22589 0.10965 3.22589 0.136306L3.23133 0.205366C3.31494 0.250195 3.47002 0.293207 3.69659 0.334402 3.81412 0.353788 3.93527 0.386501 4.06007 0.432541 4.0831 0.450715 4.10066 0.474947 4.11278 0.505237 4.13095 0.558547 4.14367 0.709998 4.15094 0.959587L4.18002 1.61931 4.16912 2.36262 4.17456 2.77699C4.17456 3.24345 4.07946 3.58331 3.88924 3.79655 3.70023 4.011 3.46214 4.11822 3.175 4.11822 2.90603 4.11822 2.63584 4.05159 2.36443 3.91831 2.09425 3.78625 1.8701 3.60875 1.692 3.38582 1.68836 3.27919 1.68655 3.18227 1.68655 3.09504L1.71017 1.18676C1.71381 0.769972 1.73743 0.532498 1.78105 0.474341 1.82467 0.416184 1.9222 0.375596 2.07365 0.352576 2.31598 0.31865 2.47287 0.276851 2.54436 0.227174 2.57829 0.204155 2.59525 0.17023 2.59525 0.1254 2.59525 0.0951106 2.59343 0.0587626 2.58979 0.0163566 2.15847 0.0466466 1.86889 0.0617916 1.72108 0.0617916 1.56963 0.0617916 1.43332 0.0599742 1.31216 0.0563394L1.02865 0.0399828 0.85236 0.0399828 0.216271 0.0163566C0.209002 0.0430118 0.205366 0.0660322 0.205366 0.0854178 0.205366 0.104803 0.212635 0.142363 0.227174 0.198096Z" transform="matrix(1.00089 0 0 -1 370.093 137.043)"/><path d="M4.49807 2.9987 2.22087 2.98235 1.78832 2.98235C1.61506 2.98235 1.43757 2.97448 1.25583 2.95873 1.2219 2.84483 1.20494 2.7673 1.20494 2.7261L1.21038 2.66976 1.21038 2.61343 1.20494 2.33354C1.20494 2.10333 1.27764 1.82042 1.42303 1.48481 1.56842 1.15041 1.7762 0.894767 2.0464 0.717874 2.31779 0.542191 2.65582 0.448898 3.0605 0.437993 3.27738 0.448898 3.45004 0.474947 3.57846 0.516142 3.70689 0.558547 3.88863 0.655476 4.12368 0.806926L4.5326 1.14133 4.56712 0.914153C4.56712 0.887497 4.5647 0.859025 4.55985 0.828734 4.39023 0.613069 4.17456 0.423454 3.91286 0.259889 3.65236 0.0975338 3.38763-0.021203 3.11866-0.0963222 2.98902-0.130247 2.77699-0.147209 2.48257-0.147209 2.21359-0.147209 1.94825-0.0926874 1.68655 0.0163566 1.30005 0.183557 0.995935 0.451321 0.774212 0.819648 0.553702 1.18919 0.443446 1.63747 0.443446 2.16453 0.443446 2.33052 0.474341 2.54376 0.536134 2.80425 0.599136 3.06596 0.711815 3.34462 0.874169 3.64026 0.984425 3.84137 1.11891 4.00615 1.27764 4.13459 1.50541 4.31633 1.70411 4.44294 1.87374 4.51442 2.1197 4.61741 2.40563 4.6689 2.73156 4.6689 3.08413 4.6689 3.37188 4.60468 3.59481 4.47626 3.89772 4.30542 4.12368 4.08552 4.27271 3.81654 4.42294 3.54756 4.49807 3.30161 4.49807 3.07868ZM1.32852 3.20408 1.59568 3.20408C1.78953 3.20408 2.36504 3.23437 3.32221 3.29494 3.47366 3.30221 3.56635 3.31736 3.60027 3.34039 3.66933 3.41186 3.70387 3.47608 3.70387 3.53303 3.70387 3.65055 3.66569 3.78382 3.58937 3.93285 3.51424 4.0831 3.39793 4.1988 3.24043 4.27998 3.08292 4.36116 2.89997 4.40175 2.69157 4.40175 2.25297 4.40175 1.90101 4.23697 1.63566 3.90742 1.4309 3.65782 1.32852 3.42338 1.32852 3.20408Z" transform="matrix(1.00089 0 0 -1 379.069 137.043)"/><path d="M4.51442 7.00789C4.54471 6.75831 4.55985 6.61473 4.55985 6.57717L4.53804 6.07193C4.53078 5.85627 4.52109 5.71815 4.50897 5.65756 4.47505 5.64181 4.44658 5.63394 4.42355 5.63394L4.37267 5.64484C4.25151 6.17553 4.04614 6.56203 3.75657 6.80435 3.46699 7.04666 3.11381 7.16783 2.69702 7.16783 2.2657 7.16783 1.9119 7.04666 1.63566 6.80435 1.35942 6.56203 1.22129 6.27973 1.22129 5.95744 1.22129 5.71149 1.31761 5.48613 1.51026 5.28136 1.70411 5.07781 2.19844 4.77128 2.99326 4.36176 3.59906 4.04796 4.03221 3.79171 4.29269 3.593 4.5544 3.3943 4.75129 3.16409 4.88336 2.90238 5.01663 2.64068 5.08326 2.34929 5.08326 2.02822 5.08326 1.62233 4.97786 1.24129 4.76704 0.885074 4.55743 0.530075 4.27453 0.262312 3.91831 0.081783 3.56331-0.0975338 3.092-0.187193 2.50437-0.187193 1.99308-0.187193 1.50299-0.106015 1.0341 0.0563394 0.757855 0.15569 0.589444 0.235656 0.528864 0.296237 0.468283 0.356816 0.437993 0.421031 0.437993 0.48888 0.437993 0.530075 0.441629 0.58278 0.448898 0.646994 0.502208 1.09407 0.530681 1.46179 0.534316 1.75016 0.541585 1.92705 0.554912 2.03064 0.574298 2.06094 0.588838 2.08758 0.61731 2.10091 0.659717 2.10091 0.693641 2.10091 0.720902 2.08879 0.741499 2.06457 0.762096 2.04034 0.77603 1.99369 0.7833 1.92463 0.825706 1.45938 1.04198 1.04319 1.43211 0.676073 1.8174 0.308958 2.25418 0.1254 2.74245 0.1254 3.04172 0.1254 3.31736 0.187798 3.56937 0.312593 3.82139 0.437388 4.01827 0.617916 4.16003 0.854178 4.30179 1.09165 4.37267 1.32186 4.37267 1.54478 4.37267 1.85133 4.26484 2.13181 4.04917 2.38624 3.8335 2.63947 3.39975 2.9351 2.74791 3.27313 2.09727 3.61239 1.67382 3.85955 1.47754 4.01463 1.1589 4.26907 0.92021 4.53804 0.761491 4.82156 0.643966 5.04086 0.585203 5.29651 0.585203 5.58851 0.585203 6.11434 0.792992 6.5602 1.20857 6.92612 1.62537 7.29201 2.18451 7.47496 2.88603 7.47496 3.27132 7.47496 3.60451 7.43135 3.8856 7.34411 4.08914 7.27506 4.29875 7.16298 4.51442 7.00789Z" transform="matrix(1.00089 0 0 -1 17.4908 15.9689)"/><path d="M1.62476 5.61213 1.80105 5.60486 1.82286 5.06691 1.81194 4.36722C1.88343 4.36357 1.92886 4.36176 1.94825 4.36176 2.0464 4.36176 2.23358 4.36963 2.50983 4.38538 2.68794 4.39629 2.85877 4.40175 3.02234 4.40175 3.09745 4.40175 3.21074 4.39992 3.36218 4.39629 3.36947 4.31996 3.37309 4.25938 3.37309 4.21455 3.37309 4.16488 3.36218 4.08733 3.34039 3.98193L3.24224 3.98193 2.36262 3.95285 1.92463 3.94194 1.82286 3.93104C1.79257 3.83532 1.77741 3.72506 1.77741 3.60027L1.79559 2.74972 1.78287 1.25037C1.78287 0.856601 1.83436 0.594895 1.93734 0.465254 2.03549 0.33319 2.18269 0.267158 2.37897 0.267158 2.47833 0.267158 2.6643 0.297448 2.93692 0.358027 3.0193 0.377413 3.13078 0.439811 3.27132 0.54522L3.32221 0.54522C3.35614 0.54522 3.38339 0.534922 3.40399 0.514325 3.4258 0.493727 3.43671 0.466466 3.43671 0.432541L3.43125 0.392558C3.26769 0.214453 3.0805 0.0842062 2.86968 0.0018174 2.66007-0.0793598 2.3814-0.119948 2.03367-0.119948 1.78772-0.119948 1.58417-0.0630032 1.42303 0.0508872 1.26189 0.164778 1.15829 0.299266 1.11225 0.45435 1.06742 0.609434 1.04501 0.948077 1.04501 1.47027L1.06863 2.74972 1.06136 3.36218 1.06136 3.58937C1.06136 3.69598 1.05773 3.802 1.05046 3.90742L0.954135 3.91286 0.48888 3.89651 0.443446 3.89105C0.40104 3.89105 0.369538 3.90013 0.348941 3.91831 0.328344 3.9377 0.318046 3.96072 0.318046 3.98737 0.318046 4.03221 0.331979 4.06856 0.359845 4.09643 0.388924 4.1255 0.475553 4.17033 0.619733 4.23091 0.717874 4.27332 0.832369 4.35207 0.963222 4.46716 1.09407 4.58227 1.20494 4.7101 1.2958 4.85064 1.34063 4.92577 1.40485 5.06933 1.48845 5.28136 1.54903 5.43645 1.59446 5.54671 1.62476 5.61213Z" transform="matrix(1.00089 0 0 -1 23.0672 15.9689)"/><path d="M0.232627-0.0163566 0.210818 0.0563394C0.210818 0.0829946 0.22778 0.122977 0.261706 0.176287L0.596107 0.243532 1.06863 0.328949C1.10619 0.348335 1.13224 0.37499 1.14678 0.408914 1.1698 0.458591 1.1813 0.604589 1.1813 0.846908 1.1813 2.13363 1.17343 2.87634 1.15768 3.07504 1.14314 3.27374 1.10922 3.39975 1.05591 3.45306 1.00381 3.50637 0.867505 3.54817 0.646994 3.57846 0.518564 3.59664 0.41679 3.62087 0.341671 3.65115L0.36348 3.822C0.760885 3.98556 1.02804 4.1255 1.16495 4.24182 1.35396 4.41265 1.5145 4.63619 1.64656 4.91244L1.84102 4.90698C1.86283 4.71797 1.87374 4.29754 1.87374 3.64571L1.86829 3.54938C1.86829 3.52636 1.87193 3.49062 1.87919 3.44216 2.02337 3.70265 2.20329 3.94315 2.41896 4.16367L2.54982 4.29452C2.60312 4.3551 2.65461 4.40235 2.70429 4.43627 2.96842 4.59499 3.1653 4.67435 3.29494 4.67435 3.46093 4.67435 3.59664 4.61862 3.70204 4.50715 3.80867 4.39569 3.86197 4.25817 3.86197 4.0946 3.86197 3.96618 3.82441 3.86622 3.7493 3.79473 3.64632 3.69902 3.52878 3.65115 3.39672 3.65115 3.33614 3.65115 3.21679 3.68327 3.03869 3.74748 2.86059 3.8129 2.74306 3.84562 2.68612 3.84562 2.58071 3.84562 2.5068 3.82866 2.46439 3.79473 2.35898 3.71113 2.23056 3.5403 2.07911 3.28223 1.96158 3.08958 1.90282 2.91209 1.90282 2.74972L1.9319 1.81194 1.9428 0.686977C1.95371 0.558547 1.96885 0.475553 1.98824 0.437993 2.00278 0.411338 2.04034 0.379231 2.10091 0.341671 2.51043 0.306535 2.75276 0.281698 2.82787 0.267158 2.88118 0.263522 2.92117 0.259889 2.94783 0.256253 3.11018 0.252619 3.22346 0.229598 3.28767 0.187193 3.32281 0.169018 3.34039 0.140545 3.34039 0.101774 3.34039 0.0799656 3.32523 0.0496756 3.29494 0.0109044L2.6643 0.0163566 2.42442 0.0236262 2.07911 0.0163566 1.49935 0.0163566 1.18676 0Z" transform="matrix(1.00089 0 0 -1 26.4607 15.9689)"/><path d="M4.49807 2.9987 2.22087 2.98235 1.78832 2.98235C1.61506 2.98235 1.43757 2.97448 1.25583 2.95873 1.2219 2.84483 1.20494 2.7673 1.20494 2.7261L1.21038 2.66976 1.21038 2.61343 1.20494 2.33354C1.20494 2.10333 1.27764 1.82042 1.42303 1.48481 1.56842 1.15041 1.7762 0.894767 2.0464 0.717874 2.31779 0.542191 2.65582 0.448898 3.0605 0.437993 3.27738 0.448898 3.45004 0.474947 3.57846 0.516142 3.70689 0.558547 3.88863 0.655476 4.12368 0.806926L4.5326 1.14133 4.56712 0.914153C4.56712 0.887497 4.5647 0.859025 4.55985 0.828734 4.39023 0.613069 4.17456 0.423454 3.91286 0.259889 3.65236 0.0975338 3.38763-0.021203 3.11866-0.0963222 2.98902-0.130247 2.77699-0.147209 2.48257-0.147209 2.21359-0.147209 1.94825-0.0926874 1.68655 0.0163566 1.30005 0.183557 0.995935 0.451321 0.774212 0.819648 0.553702 1.18919 0.443446 1.63747 0.443446 2.16453 0.443446 2.33052 0.474341 2.54376 0.536134 2.80425 0.599136 3.06596 0.711815 3.34462 0.874169 3.64026 0.984425 3.84137 1.11891 4.00615 1.27764 4.13459 1.50541 4.31633 1.70411 4.44294 1.87374 4.51442 2.1197 4.61741 2.40563 4.6689 2.73156 4.6689 3.08413 4.6689 3.37188 4.60468 3.59481 4.47626 3.89772 4.30542 4.12368 4.08552 4.27271 3.81654 4.42294 3.54756 4.49807 3.30161 4.49807 3.07868ZM1.32852 3.20408 1.59568 3.20408C1.78953 3.20408 2.36504 3.23437 3.32221 3.29494 3.47366 3.30221 3.56635 3.31736 3.60027 3.34039 3.66933 3.41186 3.70387 3.47608 3.70387 3.53303 3.70387 3.65055 3.66569 3.78382 3.58937 3.93285 3.51424 4.0831 3.39793 4.1988 3.24043 4.27998 3.08292 4.36116 2.89997 4.40175 2.69157 4.40175 2.25297 4.40175 1.90101 4.23697 1.63566 3.90742 1.4309 3.65782 1.32852 3.42338 1.32852 3.20408Z" transform="matrix(1.00089 0 0 -1 30.3431 15.9689)"/><path d="M0.823282 1.44301C0.963828 1.08317 1.06984 0.849937 1.14133 0.743316 1.28551 0.527652 1.45755 0.359845 1.65747 0.239897 1.8586 0.12116 2.07669 0.0617916 2.31173 0.0617916 2.5274 0.0617916 2.74124 0.155084 2.95327 0.341671 3.10472 0.481006 3.18046 0.64336 3.18046 0.828734 3.18046 1.07469 3.09139 1.30186 2.9133 1.51026 2.73518 1.71502 2.39715 1.9107 1.89918 2.09727 1.40122 2.28507 1.06742 2.48499 0.897796 2.69702 0.72696 2.90905 0.641542 3.15138 0.641542 3.42398 0.641542 3.68205 0.711209 3.90923 0.850543 4.10551 0.991089 4.303 1.18434 4.45202 1.4303 4.55258 1.67746 4.65315 1.90524 4.70343 2.11364 4.70343 2.3814 4.70343 2.62251 4.68223 2.83696 4.63982 3.05142 4.59863 3.23618 4.53442 3.39126 4.44718 3.42156 4.25453 3.44579 3.97041 3.46396 3.59481L3.47668 3.41308C3.42701 3.40944 3.38521 3.40763 3.35129 3.40763L3.27132 3.40763C3.15743 3.72143 2.98417 3.97041 2.75154 4.15458 2.51891 4.33874 2.28871 4.43083 2.06094 4.43083 1.83436 4.43083 1.6508 4.36116 1.51026 4.22182 1.37093 4.0837 1.30126 3.90317 1.30126 3.68023 1.30126 3.5094 1.3576 3.35795 1.47027 3.22589 1.58417 3.09383 1.85011 2.94237 2.26812 2.77153 2.68733 2.6007 2.99205 2.44259 3.18227 2.29719 3.3737 2.1518 3.51486 1.97491 3.60572 1.76651 3.69659 1.55811 3.74203 1.35942 3.74203 1.17041 3.74203 0.9087 3.656 0.663956 3.48395 0.436176 3.31191 0.209606 3.09625 0.0502814 2.83696-0.0418002 2.57768-0.135094 2.34566-0.18174 2.14089-0.18174 1.65989-0.18174 1.21705-0.0926874 0.812378 0.0854178 0.774818 0.115708 0.754222 0.172654 0.750586 0.256253 0.750586 0.290178 0.746346 0.3447 0.737864 0.41982 0.677285 0.931115 0.646994 1.23402 0.646994 1.32852 0.646994 1.37456 0.656687 1.40485 0.676073 1.41939 0.695459 1.43514 0.744528 1.44301 0.823282 1.44301Z" transform="matrix(1.00089 0 0 -1 35.192 15.9689)"/><path d="M0.823282 1.44301C0.963828 1.08317 1.06984 0.849937 1.14133 0.743316 1.28551 0.527652 1.45755 0.359845 1.65747 0.239897 1.8586 0.12116 2.07669 0.0617916 2.31173 0.0617916 2.5274 0.0617916 2.74124 0.155084 2.95327 0.341671 3.10472 0.481006 3.18046 0.64336 3.18046 0.828734 3.18046 1.07469 3.09139 1.30186 2.9133 1.51026 2.73518 1.71502 2.39715 1.9107 1.89918 2.09727 1.40122 2.28507 1.06742 2.48499 0.897796 2.69702 0.72696 2.90905 0.641542 3.15138 0.641542 3.42398 0.641542 3.68205 0.711209 3.90923 0.850543 4.10551 0.991089 4.303 1.18434 4.45202 1.4303 4.55258 1.67746 4.65315 1.90524 4.70343 2.11364 4.70343 2.3814 4.70343 2.62251 4.68223 2.83696 4.63982 3.05142 4.59863 3.23618 4.53442 3.39126 4.44718 3.42156 4.25453 3.44579 3.97041 3.46396 3.59481L3.47668 3.41308C3.42701 3.40944 3.38521 3.40763 3.35129 3.40763L3.27132 3.40763C3.15743 3.72143 2.98417 3.97041 2.75154 4.15458 2.51891 4.33874 2.28871 4.43083 2.06094 4.43083 1.83436 4.43083 1.6508 4.36116 1.51026 4.22182 1.37093 4.0837 1.30126 3.90317 1.30126 3.68023 1.30126 3.5094 1.3576 3.35795 1.47027 3.22589 1.58417 3.09383 1.85011 2.94237 2.26812 2.77153 2.68733 2.6007 2.99205 2.44259 3.18227 2.29719 3.3737 2.1518 3.51486 1.97491 3.60572 1.76651 3.69659 1.55811 3.74203 1.35942 3.74203 1.17041 3.74203 0.9087 3.656 0.663956 3.48395 0.436176 3.31191 0.209606 3.09625 0.0502814 2.83696-0.0418002 2.57768-0.135094 2.34566-0.18174 2.14089-0.18174 1.65989-0.18174 1.21705-0.0926874 0.812378 0.0854178 0.774818 0.115708 0.754222 0.172654 0.750586 0.256253 0.750586 0.290178 0.746346 0.3447 0.737864 0.41982 0.677285 0.931115 0.646994 1.23402 0.646994 1.32852 0.646994 1.37456 0.656687 1.40485 0.676073 1.41939 0.695459 1.43514 0.744528 1.44301 0.823282 1.44301Z" transform="matrix(1.00089 0 0 -1 39.4382 15.9689)"/><g clip-path="url(#clip1)"><path d="M8.30812 75.839 11.986 72.8427 15.6638 69.8585 19.3416 66.8984 23.0195 63.9744 26.6972 61.0981 30.375 58.2812 34.0529 55.5349 37.7307 52.8704 41.4086 50.2984 45.0864 47.8292 48.7642 45.4729 52.4421 43.2388 56.1199 41.1359 59.7977 39.1728 63.4755 37.3574 67.1533 35.6969 70.8312 34.198 74.509 32.8668 78.1868 31.7087 81.8647 30.7281 85.5428 29.9294 89.22 29.3154 92.898 28.8888 96.576 28.6512 100.254 28.6037 103.932 28.7463 107.609 29.0786 111.287 29.5991 114.965 30.3058 118.643 31.196 122.32 32.2658 125.998 33.5111 129.676 34.9268 133.354 36.5073 137.032 38.2462 140.71 40.1364 144.388 42.1704 148.066 44.3399 151.744 46.6364 155.422 49.0504 159.099 51.5722 162.777 54.1918 166.455 56.8985 170.133 59.6815 173.811 62.5295 177.488 65.4312 181.166 68.3748 184.844 71.3483 188.522 74.3401 192.199 77.3378 195.877 80.3295 199.555 83.303 203.233 86.2465 206.911 89.1486 210.588 91.9966 214.266 94.779 217.944 97.4858 221.622 100.105 225.3 102.628 228.977 105.041 232.655 107.338 236.333 109.508 240.011 111.541 243.689 113.432 247.367 115.17 251.045 116.751 254.723 118.167 258.401 119.412 262.078 120.482 265.756 121.372 269.434 122.079 273.112 122.6 276.79 122.932 280.467 123.074 284.145 123.027 287.823 122.789 291.501 122.363 295.179 121.749 298.856 120.95 302.534 119.969 306.212 118.811 309.89 117.48 313.568 115.981 317.245 114.32 320.923 112.505 324.601 110.542 328.279 108.439 331.957 106.205 335.635 103.849 339.313 101.38 342.991 98.8076 346.669 96.1432 350.346 93.3965 354.024 90.5801 357.702 87.7038 361.38 84.7793 365.058 81.8193 368.735 78.8351 372.413 75.839" stroke="#000000" stroke-width="0.623109" stroke-linecap="square" stroke-linejoin="round" fill="none" transform="matrix(1.00089 0 0 1 0 0.0380086)"/></g><g clip-path="url(#clip2)"><path d="M8.30812 75.839 11.986 75.839 15.6638 75.839 19.3416 75.839 23.0195 75.839 26.6972 75.839 30.375 75.839 34.0529 75.839 37.7307 75.839 41.4086 75.839 45.0864 75.839 48.7642 75.839 52.4421 75.839 56.1199 75.839 59.7977 75.839 63.4755 75.839 67.1533 75.839 70.8312 75.839 74.509 75.839 78.1868 75.839 81.8647 75.839 85.5428 75.839 89.22 75.839 92.898 75.839 96.576 75.839 100.254 75.839 103.932 75.839 107.609 75.839 111.287 75.839 114.965 75.839 118.643 75.839 122.32 75.839 125.998 75.839 129.676 75.839 133.354 75.839 137.032 75.839 140.71 75.839 144.388 75.839 148.066 75.839 151.744 75.839 155.422 75.839 159.099 75.839 162.777 75.839 166.455 75.839 170.133 75.839 173.811 75.839 177.488 75.839 181.166 75.839 184.844 75.839 188.522 75.839 192.199 75.839 195.877 75.839 199.555 75.839 203.233 75.839 206.911 75.839 210.588 75.839 214.266 75.839 217.944 75.839 221.622 75.839 225.3 75.839 228.977 75.839 232.655 75.839 236.333 75.839 240.011 75.839" stroke="#000000" stroke-width="0.415406" stroke-linecap="square" stroke-linejoin="round" fill="none" transform="matrix(1.00089 0 0 1 0 0.0380086)"/></g><g clip-path="url(#clip3)"><path d="M8.30812 123.08 11.986 123.08 15.6638 123.08 19.3416 123.08 23.0195 123.08 26.6972 123.08 30.375 123.08 34.0529 123.08 37.7307 123.08 41.4086 123.08 45.0864 123.08 48.7642 123.08 52.4421 123.08 56.1199 123.08 59.7977 123.08 63.4755 123.08 67.1533 123.08 70.8312 123.08 74.509 123.08 78.1868 123.08 81.8647 123.08 85.5428 123.08 89.22 123.08 92.898 123.08 96.576 123.08 100.254 123.08 103.932 123.08 107.609 123.08 111.287 123.08 114.965 123.08 118.643 123.08 122.32 123.08 125.998 123.08 129.676 123.08 133.354 123.08 137.032 123.08 140.71 123.08 144.388 123.08 148.066 123.08 151.744 123.08 155.422 123.08 159.099 123.08 162.777 123.08 166.455 123.08 170.133 123.08 173.811 123.08 177.488 123.08 181.166 123.08 184.844 123.08 188.522 123.08 192.199 123.08 195.877 123.08 199.555 123.08 203.233 123.08 206.911 123.08 210.588 123.08 214.266 123.08 217.944 123.08 221.622 123.08 225.3 123.08 228.977 123.08 232.655 123.08 236.333 123.08 240.011 123.08 243.689 123.08 247.367 123.08 251.045 123.08 254.723 123.08 258.401 123.08 262.078 123.08 265.756 123.08 269.434 123.08 273.112 123.08 276.79 123.08 280.467 123.08 284.145 123.08 287.823 123.08 291.501 123.08 295.179 123.08 298.856 123.08 302.534 123.08 306.212 123.08 309.89 123.08 313.568 123.08 317.245 123.08 320.923 123.08 324.601 123.08 328.279 123.08 331.957 123.08 335.635 123.08 339.313 123.08 342.991 123.08 346.669 123.08 350.346 123.08 354.024 123.08" stroke="#000000" stroke-width="0.415406" stroke-linecap="square" stroke-linejoin="round" fill="none" transform="matrix(1.00089 0 0 1 0 0.0380086)"/></g><g clip-path="url(#clip4)"><path d="M8.30812 28.5977 11.986 28.5977 15.6638 28.5977 19.3416 28.5977 23.0195 28.5977 26.6972 28.5977 30.375 28.5977 34.0529 28.5977 37.7307 28.5977 41.4086 28.5977 45.0864 28.5977 48.7642 28.5977 52.4421 28.5977 56.1199 28.5977 59.7977 28.5977 63.4755 28.5977 67.1533 28.5977 70.8312 28.5977 74.509 28.5977 78.1868 28.5977 81.8647 28.5977 85.5428 28.5977 89.22 28.5977 92.898 28.5977 96.576 28.5977 100.254 28.5977 103.932 28.5977 107.609 28.5977 111.287 28.5977 114.965 28.5977 118.643 28.5977 122.32 28.5977 125.998 28.5977 129.676 28.5977 133.354 28.5977 137.032 28.5977 140.71 28.5977 144.388 28.5977 148.066 28.5977 151.744 28.5977 155.422 28.5977 159.099 28.5977 162.777 28.5977 166.455 28.5977 170.133 28.5977 173.811 28.5977 177.488 28.5977 181.166 28.5977 184.844 28.5977 188.522 28.5977 192.199 28.5977 195.877 28.5977 199.555 28.5977 203.233 28.5977 206.911 28.5977 210.588 28.5977 214.266 28.5977 217.944 28.5977 221.622 28.5977 225.3 28.5977 228.977 28.5977 232.655 28.5977 236.333 28.5977 240.011 28.5977 243.689 28.5977 247.367 28.5977 251.045 28.5977 254.723 28.5977 258.401 28.5977 262.078 28.5977 265.756 28.5977 269.434 28.5977 273.112 28.5977 276.79 28.5977 280.467 28.5977 284.145 28.5977 287.823 28.5977 291.501 28.5977 295.179 28.5977 298.856 28.5977 302.534 28.5977 306.212 28.5977 309.89 28.5977 313.568 28.5977 317.245 28.5977 320.923 28.5977 324.601 28.5977 328.279 28.5977 331.957 28.5977 335.635 28.5977 339.313 28.5977 342.991 28.5977 346.669 28.5977 350.346 28.5977 354.024 28.5977" stroke="#000000" stroke-width="0.415406" stroke-linecap="square" stroke-linejoin="round" fill="none" transform="matrix(1.00089 0 0 1 0 0.0380086)"/></g><path d="M8.30812 193.942 8.30812 9.70122" stroke="#000000" stroke-width="0.664649" stroke-linecap="square" fill="none" transform="matrix(1.00089 0 0 1 0 0.0380086)"/><path d="M8.30812 146.701 379.182 146.701" stroke="#000000" stroke-width="0.664649" stroke-linecap="square" fill="none" transform="matrix(1.00089 0 0 1 0 0.0380086)"/><path d="M378.361 144.374 383.013 146.701 378.361 149.027 378.361 144.374Z" transform="matrix(1.00089 0 0 1 0 0.0380086)"/><path d="M5.98184 12.2936 8.30812 7.64103 10.6344 12.2936 5.98184 12.2936Z" transform="matrix(1.00089 0 0 1 0 0.0380086)"/><path d="M99.3343 58.6098C99.3343 87.4188 99.3343 116.073 99.3343 144.572" stroke="#000000" stroke-width="0.415406" stroke-linecap="round" stroke-linejoin="round" fill="none" transform="matrix(1.00089 0 0 1 0 0.0380086)"/><path d="M101.661 139.919 99.3343 144.572 97.008 139.919" stroke="#000000" stroke-width="0.415406" stroke-linecap="round" stroke-linejoin="round" fill="none" transform="matrix(1.00089 0 0 1 0 0.0380086)"/><path d="M99.3343 30.7262C99.3343 37.1839 99.3343 43.7963 99.3343 50.5636" stroke="#000000" stroke-width="0.415406" stroke-linecap="round" stroke-linejoin="round" fill="none" transform="matrix(1.00089 0 0 1 0 0.0380086)"/><path d="M97.008 35.3787 99.3343 30.7262 101.661 35.3787" stroke="#000000" stroke-width="0.415406" stroke-linecap="round" stroke-linejoin="round" fill="none" transform="matrix(1.00089 0 0 1 0 0.0380086)"/><path d="M4.03281 5.53217C3.45731 5.53217 2.97448 5.32377 2.58435 4.90698 2.17119 4.47201 1.89676 3.89469 1.76106 3.175 1.60961 2.41411 1.65505 1.81377 1.89737 1.37395 2.13605 0.93899 2.53709 0.721507 3.10048 0.721507 3.65782 0.721507 4.14065 0.940807 4.54896 1.37941 4.96211 1.81921 5.24259 2.41775 5.39041 3.175 5.52248 3.86803 5.47098 4.44537 5.23593 4.90698 5.01663 5.32377 4.61559 5.53217 4.03281 5.53217ZM4.19637 6.36636 7.66761 6.3609 7.46224 5.31589 6.29366 5.31589C6.58807 4.72584 6.65593 4.01221 6.49721 3.175 6.29245 2.13424 5.87384 1.31822 5.24138 0.72696 4.6053 0.132065 3.83289-0.165384 2.92419-0.165384 2.01186-0.165384 1.35517 0.132065 0.954135 0.72696 0.553096 1.31822 0.454956 2.13424 0.659717 3.175 0.85963 4.21939 1.27582 5.03723 1.90826 5.62849 2.43411 6.1204 3.19681 6.36636 4.19637 6.36636Z" transform="matrix(1.00089 0 0 -1 86.6746 53.972)"/><path d="M7.31122 2.68811 6.79089 0 6.0594 0 6.57209 2.66395C6.59329 2.77759 6.60898 2.87555 6.61915 2.95782 6.63018 3.04008 6.63569 3.11048 6.63569 3.169 6.63569 3.40733 6.56911 3.59264 6.43596 3.72494 6.30365 3.85725 6.11834 3.9234 5.88002 3.9234 5.52466 3.9234 5.20788 3.79025 4.9297 3.52393 4.65151 3.25763 4.47129 2.91117 4.38902 2.48457L3.9005 0 3.169 0 3.68932 2.66395C3.71052 2.76148 3.72621 2.8518 3.73639 2.93492 3.74742 3.01888 3.75294 3.09394 3.75294 3.1601 3.75294 3.40181 3.68677 3.58924 3.55447 3.7224 3.42216 3.8564 3.2394 3.9234 3.00616 3.9234 2.64571 3.9234 2.32597 3.79025 2.04694 3.52393 1.76876 3.25763 1.58853 2.91117 1.50626 2.48457L1.01774 0 0.28624 0 1.15641 4.45263 1.88792 4.45263 1.74925 3.76056C1.94771 4.02094 2.18009 4.21897 2.4464 4.35467 2.71356 4.49122 2.99937 4.55949 3.30385 4.55949 3.62699 4.55949 3.89245 4.47468 4.10024 4.30506 4.30888 4.13544 4.43439 3.89965 4.4768 3.59773 4.69901 3.91068 4.95641 4.149 5.24902 4.31269 5.54246 4.47723 5.85203 4.55949 6.17771 4.55949 6.55936 4.55949 6.85408 4.44966 7.06187 4.23 7.27051 4.01033 7.37483 3.69908 7.37483 3.29622 7.37483 3.20887 7.36931 3.1126 7.35829 3.00743 7.34811 2.90311 7.33242 2.79668 7.31122 2.68811Z" transform="matrix(1.00089 0 0 -1 94.053 55.8802)"/><path d="M4.37376 2.54054 3.87633 0 3.14483 0 3.27968 0.675528C3.0651 0.410915 2.82042 0.212878 2.54563 0.0814195 2.27169-0.0500391 1.96636-0.115769 1.62966-0.115769 1.25056-0.115769 0.93972 0 0.697155 0.231537 0.45544 0.463922 0.334584 0.761612 0.334584 1.12461 0.334584 1.6445 0.541949 2.05542 0.956679 2.35735 1.37141 2.65928 1.94304 2.81024 2.67158 2.81024L3.68932 2.81024 3.72876 3.00616C3.7347 3.02737 3.73894 3.05026 3.74148 3.07486 3.74403 3.1003 3.7453 3.13932 3.7453 3.1919 3.7453 3.42853 3.64904 3.61214 3.45651 3.74276 3.26484 3.87421 2.99514 3.93994 2.6474 3.93994 2.40908 3.93994 2.1644 3.90941 1.91336 3.84834 1.66316 3.78728 1.40576 3.69568 1.14114 3.57355L1.26836 4.25035C1.544 4.35383 1.8137 4.43101 2.07747 4.48189 2.34123 4.53363 2.59609 4.55949 2.84205 4.55949 3.36704 4.55949 3.7665 4.44542 4.04044 4.21728 4.31524 3.98998 4.45263 3.65879 4.45263 3.22371 4.45263 3.13635 4.44585 3.03372 4.43228 2.91584 4.41955 2.79795 4.40005 2.67285 4.37376 2.54054ZM3.58246 2.23777 2.85095 2.23777C2.25133 2.23777 1.80777 2.15762 1.52026 1.99732 1.23274 1.83703 1.08899 1.58853 1.08899 1.25183 1.08899 1.01859 1.16235 0.83582 1.30907 0.703515 1.45664 0.571208 1.66019 0.505055 1.91972 0.505055 2.31748 0.505055 2.6648 0.647539 2.96164 0.932506 3.25847 1.21747 3.45482 1.59828 3.55066 2.07493Z" transform="matrix(1.00089 0 0 -1 101.991 55.8802)"/><path d="M4.88644 4.45263 2.84205 2.26957 4.09515 0 3.25551 0 2.3141 1.76579 0.675528 0-0.211182 0 1.97951 2.3459 0.815465 4.45263 1.65383 4.45263 2.50874 2.84205 3.99973 4.45263Z" transform="matrix(1.00089 0 0 -1 106.985 55.8802)"/><path d="M281.387 159.209C281.387 155.594 281.387 152.134 281.387 148.829" stroke="#000000" stroke-width="0.415406" stroke-linecap="round" stroke-linejoin="round" fill="none" transform="matrix(1.00089 0 0 1 0 0.0380086)"/><path d="M279.06 153.482 281.387 148.829 283.713 153.482" stroke="#000000" stroke-width="0.415406" stroke-linecap="round" stroke-linejoin="round" fill="none" transform="matrix(1.00089 0 0 1 0 0.0380086)"/><path d="M281.387 112.228C281.387 115.291 281.387 118.2 281.387 120.955" stroke="#000000" stroke-width="0.415406" stroke-linecap="round" stroke-linejoin="round" fill="none" transform="matrix(1.00089 0 0 1 0 0.0380086)"/><path d="M283.713 116.302 281.387 120.955 279.06 116.302" stroke="#000000" stroke-width="0.415406" stroke-linecap="round" stroke-linejoin="round" fill="none" transform="matrix(1.00089 0 0 1 0 0.0380086)"/><path d="M4.03281 5.53217C3.45731 5.53217 2.97448 5.32377 2.58435 4.90698 2.17119 4.47201 1.89676 3.89469 1.76106 3.175 1.60961 2.41411 1.65505 1.81377 1.89737 1.37395 2.13605 0.93899 2.53709 0.721507 3.10048 0.721507 3.65782 0.721507 4.14065 0.940807 4.54896 1.37941 4.96211 1.81921 5.24259 2.41775 5.39041 3.175 5.52248 3.86803 5.47098 4.44537 5.23593 4.90698 5.01663 5.32377 4.61559 5.53217 4.03281 5.53217ZM4.19637 6.36636 7.66761 6.3609 7.46224 5.31589 6.29366 5.31589C6.58807 4.72584 6.65593 4.01221 6.49721 3.175 6.29245 2.13424 5.87384 1.31822 5.24138 0.72696 4.6053 0.132065 3.83289-0.165384 2.92419-0.165384 2.01186-0.165384 1.35517 0.132065 0.954135 0.72696 0.553096 1.31822 0.454956 2.13424 0.659717 3.175 0.85963 4.21939 1.27582 5.03723 1.90826 5.62849 2.43411 6.1204 3.19681 6.36636 4.19637 6.36636Z" transform="matrix(1.00089 0 0 -1 270.052 105.932)"/><path d="M7.31122 2.68811 6.79089 0 6.0594 0 6.57209 2.66395C6.59329 2.77759 6.60898 2.87555 6.61915 2.95782 6.63018 3.04008 6.63569 3.11048 6.63569 3.169 6.63569 3.40733 6.56911 3.59264 6.43596 3.72494 6.30365 3.85725 6.11834 3.9234 5.88002 3.9234 5.52466 3.9234 5.20788 3.79025 4.9297 3.52393 4.65151 3.25763 4.47129 2.91117 4.38902 2.48457L3.9005 0 3.169 0 3.68932 2.66395C3.71052 2.76148 3.72621 2.8518 3.73639 2.93492 3.74742 3.01888 3.75294 3.09394 3.75294 3.1601 3.75294 3.40181 3.68677 3.58924 3.55447 3.7224 3.42216 3.8564 3.2394 3.9234 3.00616 3.9234 2.64571 3.9234 2.32597 3.79025 2.04694 3.52393 1.76876 3.25763 1.58853 2.91117 1.50626 2.48457L1.01774 0 0.28624 0 1.15641 4.45263 1.88792 4.45263 1.74925 3.76056C1.94771 4.02094 2.18009 4.21897 2.4464 4.35467 2.71356 4.49122 2.99937 4.55949 3.30385 4.55949 3.62699 4.55949 3.89245 4.47468 4.10024 4.30506 4.30888 4.13544 4.43439 3.89965 4.4768 3.59773 4.69901 3.91068 4.95641 4.149 5.24902 4.31269 5.54246 4.47723 5.85203 4.55949 6.17771 4.55949 6.55936 4.55949 6.85408 4.44966 7.06187 4.23 7.27051 4.01033 7.37483 3.69908 7.37483 3.29622 7.37483 3.20887 7.36931 3.1126 7.35829 3.00743 7.34811 2.90311 7.33242 2.79668 7.31122 2.68811Z" transform="matrix(1.00089 0 0 -1 277.431 107.841)"/><path d="M1.491 6.18661 2.2225 6.18661 2.04313 5.2592 1.31162 5.2592ZM1.15641 4.45263 1.88792 4.45263 1.01774 0 0.28624 0Z" transform="matrix(1.00089 0 0 -1 285.369 107.841)"/><path d="M4.5366 2.68811 4.015 0 3.27968 0 3.80127 2.66013C3.82502 2.7848 3.84325 2.89464 3.85598 2.98963 3.86954 3.08546 3.87633 3.16094 3.87633 3.21607 3.87633 3.43913 3.80594 3.61257 3.66515 3.73639 3.52521 3.86107 3.32929 3.9234 3.07741 3.9234 2.68473 3.9234 2.34675 3.79279 2.06348 3.53157 1.78021 3.2712 1.59446 2.91711 1.50626 2.4693L1.01774 0 0.28624 0 1.14878 4.45263 1.88029 4.45263 1.73398 3.75294C1.93753 4.00991 2.18221 4.20837 2.46803 4.34831 2.75469 4.4891 3.05577 4.55949 3.37127 4.55949 3.76396 4.55949 4.068 4.45348 4.28343 4.24145 4.4997 4.02942 4.60784 3.7313 4.60784 3.34711 4.60784 3.25212 4.6019 3.15034 4.59003 3.04178 4.57815 2.93322 4.56034 2.81533 4.5366 2.68811Z" transform="matrix(1.00089 0 0 -1 287.633 107.841)"/><path d="M53.8212 103.484C53.8212 117.336 53.8212 131.035 53.8212 144.577" stroke="#000000" stroke-width="0.415406" stroke-linecap="round" stroke-linejoin="round" fill="none" transform="matrix(1.00089 0 0 1 0 0.0380086)"/><path d="M56.1475 139.924 53.8212 144.577 51.4949 139.924" stroke="#000000" stroke-width="0.415406" stroke-linecap="round" stroke-linejoin="round" fill="none" transform="matrix(1.00089 0 0 1 0 0.0380086)"/><path d="M53.8212 77.9668C53.8212 83.6345 53.8212 89.4576 53.8212 95.4353" stroke="#000000" stroke-width="0.415406" stroke-linecap="round" stroke-linejoin="round" fill="none" transform="matrix(1.00089 0 0 1 0 0.0380086)"/><path d="M51.4949 82.6193 53.8212 77.9668 56.1475 82.6193" stroke="#000000" stroke-width="0.415406" stroke-linecap="round" stroke-linejoin="round" fill="none" transform="matrix(1.00089 0 0 1 0 0.0380086)"/><path d="M4.03281 5.53217C3.45731 5.53217 2.97448 5.32377 2.58435 4.90698 2.17119 4.47201 1.89676 3.89469 1.76106 3.175 1.60961 2.41411 1.65505 1.81377 1.89737 1.37395 2.13605 0.93899 2.53709 0.721507 3.10048 0.721507 3.65782 0.721507 4.14065 0.940807 4.54896 1.37941 4.96211 1.81921 5.24259 2.41775 5.39041 3.175 5.52248 3.86803 5.47098 4.44537 5.23593 4.90698 5.01663 5.32377 4.61559 5.53217 4.03281 5.53217ZM4.19637 6.36636 7.66761 6.3609 7.46224 5.31589 6.29366 5.31589C6.58807 4.72584 6.65593 4.01221 6.49721 3.175 6.29245 2.13424 5.87384 1.31822 5.24138 0.72696 4.6053 0.132065 3.83289-0.165384 2.92419-0.165384 2.01186-0.165384 1.35517 0.132065 0.954135 0.72696 0.553096 1.31822 0.454956 2.13424 0.659717 3.175 0.85963 4.21939 1.27582 5.03723 1.90826 5.62849 2.43411 6.1204 3.19681 6.36636 4.19637 6.36636Z" transform="matrix(1.00089 0 0 -1 41.0048 98.8463)"/><path d="M7.31122 2.68811 6.79089 0 6.0594 0 6.57209 2.66395C6.59329 2.77759 6.60898 2.87555 6.61915 2.95782 6.63018 3.04008 6.63569 3.11048 6.63569 3.169 6.63569 3.40733 6.56911 3.59264 6.43596 3.72494 6.30365 3.85725 6.11834 3.9234 5.88002 3.9234 5.52466 3.9234 5.20788 3.79025 4.9297 3.52393 4.65151 3.25763 4.47129 2.91117 4.38902 2.48457L3.9005 0 3.169 0 3.68932 2.66395C3.71052 2.76148 3.72621 2.8518 3.73639 2.93492 3.74742 3.01888 3.75294 3.09394 3.75294 3.1601 3.75294 3.40181 3.68677 3.58924 3.55447 3.7224 3.42216 3.8564 3.2394 3.9234 3.00616 3.9234 2.64571 3.9234 2.32597 3.79025 2.04694 3.52393 1.76876 3.25763 1.58853 2.91117 1.50626 2.48457L1.01774 0 0.28624 0 1.15641 4.45263 1.88792 4.45263 1.74925 3.76056C1.94771 4.02094 2.18009 4.21897 2.4464 4.35467 2.71356 4.49122 2.99937 4.55949 3.30385 4.55949 3.62699 4.55949 3.89245 4.47468 4.10024 4.30506 4.30888 4.13544 4.43439 3.89965 4.4768 3.59773 4.69901 3.91068 4.95641 4.149 5.24902 4.31269 5.54246 4.47723 5.85203 4.55949 6.17771 4.55949 6.55936 4.55949 6.85408 4.44966 7.06187 4.23 7.27051 4.01033 7.37483 3.69908 7.37483 3.29622 7.37483 3.20887 7.36931 3.1126 7.35829 3.00743 7.34811 2.90311 7.33242 2.79668 7.31122 2.68811Z" transform="matrix(1.00089 0 0 -1 48.3832 100.755)"/><path d="M3.91577 2.62451C3.92425 2.66691 3.93019 2.71059 3.93358 2.75555 3.93782 2.80049 3.93994 2.84544 3.93994 2.89039 3.93994 3.21353 3.84496 3.46924 3.65497 3.65752 3.46584 3.8458 3.20843 3.93994 2.88276 3.93994 2.51976 3.93994 2.19875 3.82502 1.91972 3.59518 1.64154 3.36619 1.4312 3.04094 1.28872 2.61942ZM4.55186 2.05202 1.14878 2.05202C1.13267 1.9511 1.12206 1.87138 1.11698 1.81285 1.11188 1.75434 1.10934 1.70387 1.10934 1.66146 1.10934 1.29338 1.22256 1.00841 1.44902 0.806562 1.67546 0.605558 1.99563 0.505055 2.40951 0.505055 2.72755 0.505055 3.02821 0.540676 3.31149 0.611918 3.59561 0.684009 3.85937 0.788752 4.10278 0.926147L3.96411 0.202277C3.70119 0.0962615 3.4298 0.0169624 3.14992-0.035621 2.87089-0.0890526 2.58676-0.115769 2.29756-0.115769 1.68012-0.115769 1.20518 0.0318045 0.87272 0.32695 0.540253 0.622944 0.374021 1.04276 0.374021 1.58641 0.374021 2.05033 0.456713 2.4816 0.622096 2.88022 0.78748 3.27883 1.03089 3.63462 1.35233 3.94758 1.55842 4.14349 1.80395 4.29446 2.08892 4.40047 2.37388 4.50649 2.67667 4.55949 2.99726 4.55949 3.50104 4.55949 3.90178 4.40853 4.19946 4.1066 4.49801 3.80467 4.64727 3.39927 4.64727 2.89039 4.64727 2.76826 4.63922 2.63765 4.6231 2.49856 4.60784 2.35947 4.58409 2.21062 4.55186 2.05202Z" transform="matrix(1.00089 0 0 -1 56.3214 100.755)"/><path d="M4.37376 2.54054 3.87633 0 3.14483 0 3.27968 0.675528C3.0651 0.410915 2.82042 0.212878 2.54563 0.0814195 2.27169-0.0500391 1.96636-0.115769 1.62966-0.115769 1.25056-0.115769 0.93972 0 0.697155 0.231537 0.45544 0.463922 0.334584 0.761612 0.334584 1.12461 0.334584 1.6445 0.541949 2.05542 0.956679 2.35735 1.37141 2.65928 1.94304 2.81024 2.67158 2.81024L3.68932 2.81024 3.72876 3.00616C3.7347 3.02737 3.73894 3.05026 3.74148 3.07486 3.74403 3.1003 3.7453 3.13932 3.7453 3.1919 3.7453 3.42853 3.64904 3.61214 3.45651 3.74276 3.26484 3.87421 2.99514 3.93994 2.6474 3.93994 2.40908 3.93994 2.1644 3.90941 1.91336 3.84834 1.66316 3.78728 1.40576 3.69568 1.14114 3.57355L1.26836 4.25035C1.544 4.35383 1.8137 4.43101 2.07747 4.48189 2.34123 4.53363 2.59609 4.55949 2.84205 4.55949 3.36704 4.55949 3.7665 4.44542 4.04044 4.21728 4.31524 3.98998 4.45263 3.65879 4.45263 3.22371 4.45263 3.13635 4.44585 3.03372 4.43228 2.91584 4.41955 2.79795 4.40005 2.67285 4.37376 2.54054ZM3.58246 2.23777 2.85095 2.23777C2.25133 2.23777 1.80777 2.15762 1.52026 1.99732 1.23274 1.83703 1.08899 1.58853 1.08899 1.25183 1.08899 1.01859 1.16235 0.83582 1.30907 0.703515 1.45664 0.571208 1.66019 0.505055 1.91972 0.505055 2.31748 0.505055 2.6648 0.647539 2.96164 0.932506 3.25847 1.21747 3.45482 1.59828 3.55066 2.07493Z" transform="matrix(1.00089 0 0 -1 61.3351 100.755)"/><path d="M144.848 103.485C144.848 109.463 144.848 115.285 144.848 120.954" stroke="#000000" stroke-width="0.415406" stroke-linecap="round" stroke-linejoin="round" fill="none" transform="matrix(1.00089 0 0 1 0 0.0380086)"/><path d="M147.174 116.301 144.848 120.954 142.522 116.301" stroke="#000000" stroke-width="0.415406" stroke-linecap="round" stroke-linejoin="round" fill="none" transform="matrix(1.00089 0 0 1 0 0.0380086)"/><path d="M144.848 77.9668C144.848 83.6345 144.848 89.4576 144.848 95.4353" stroke="#000000" stroke-width="0.415406" stroke-linecap="round" stroke-linejoin="round" fill="none" transform="matrix(1.00089 0 0 1 0 0.0380086)"/><path d="M142.522 82.6193 144.848 77.9668 147.174 82.6193" stroke="#000000" stroke-width="0.415406" stroke-linecap="round" stroke-linejoin="round" fill="none" transform="matrix(1.00089 0 0 1 0 0.0380086)"/><path d="M4.03281 5.53217C3.45731 5.53217 2.97448 5.32377 2.58435 4.90698 2.17119 4.47201 1.89676 3.89469 1.76106 3.175 1.60961 2.41411 1.65505 1.81377 1.89737 1.37395 2.13605 0.93899 2.53709 0.721507 3.10048 0.721507 3.65782 0.721507 4.14065 0.940807 4.54896 1.37941 4.96211 1.81921 5.24259 2.41775 5.39041 3.175 5.52248 3.86803 5.47098 4.44537 5.23593 4.90698 5.01663 5.32377 4.61559 5.53217 4.03281 5.53217ZM4.19637 6.36636 7.66761 6.3609 7.46224 5.31589 6.29366 5.31589C6.58807 4.72584 6.65593 4.01221 6.49721 3.175 6.29245 2.13424 5.87384 1.31822 5.24138 0.72696 4.6053 0.132065 3.83289-0.165384 2.92419-0.165384 2.01186-0.165384 1.35517 0.132065 0.954135 0.72696 0.553096 1.31822 0.454956 2.13424 0.659717 3.175 0.85963 4.21939 1.27582 5.03723 1.90826 5.62849 2.43411 6.1204 3.19681 6.36636 4.19637 6.36636Z" transform="matrix(1.00089 0 0 -1 132.054 98.2232)"/><path d="M4.37376 2.54054 3.87633 0 3.14483 0 3.27968 0.675528C3.0651 0.410915 2.82042 0.212878 2.54563 0.0814195 2.27169-0.0500391 1.96636-0.115769 1.62966-0.115769 1.25056-0.115769 0.93972 0 0.697155 0.231537 0.45544 0.463922 0.334584 0.761612 0.334584 1.12461 0.334584 1.6445 0.541949 2.05542 0.956679 2.35735 1.37141 2.65928 1.94304 2.81024 2.67158 2.81024L3.68932 2.81024 3.72876 3.00616C3.7347 3.02737 3.73894 3.05026 3.74148 3.07486 3.74403 3.1003 3.7453 3.13932 3.7453 3.1919 3.7453 3.42853 3.64904 3.61214 3.45651 3.74276 3.26484 3.87421 2.99514 3.93994 2.6474 3.93994 2.40908 3.93994 2.1644 3.90941 1.91336 3.84834 1.66316 3.78728 1.40576 3.69568 1.14114 3.57355L1.26836 4.25035C1.544 4.35383 1.8137 4.43101 2.07747 4.48189 2.34123 4.53363 2.59609 4.55949 2.84205 4.55949 3.36704 4.55949 3.7665 4.44542 4.04044 4.21728 4.31524 3.98998 4.45263 3.65879 4.45263 3.22371 4.45263 3.13635 4.44585 3.03372 4.43228 2.91584 4.41955 2.79795 4.40005 2.67285 4.37376 2.54054ZM3.58246 2.23777 2.85095 2.23777C2.25133 2.23777 1.80777 2.15762 1.52026 1.99732 1.23274 1.83703 1.08899 1.58853 1.08899 1.25183 1.08899 1.01859 1.16235 0.83582 1.30907 0.703515 1.45664 0.571208 1.66019 0.505055 1.91972 0.505055 2.31748 0.505055 2.6648 0.647539 2.96164 0.932506 3.25847 1.21747 3.45482 1.59828 3.55066 2.07493Z" transform="matrix(1.00089 0 0 -1 139.432 100.131)"/><path d="M7.31122 2.68811 6.79089 0 6.0594 0 6.57209 2.66395C6.59329 2.77759 6.60898 2.87555 6.61915 2.95782 6.63018 3.04008 6.63569 3.11048 6.63569 3.169 6.63569 3.40733 6.56911 3.59264 6.43596 3.72494 6.30365 3.85725 6.11834 3.9234 5.88002 3.9234 5.52466 3.9234 5.20788 3.79025 4.9297 3.52393 4.65151 3.25763 4.47129 2.91117 4.38902 2.48457L3.9005 0 3.169 0 3.68932 2.66395C3.71052 2.76148 3.72621 2.8518 3.73639 2.93492 3.74742 3.01888 3.75294 3.09394 3.75294 3.1601 3.75294 3.40181 3.68677 3.58924 3.55447 3.7224 3.42216 3.8564 3.2394 3.9234 3.00616 3.9234 2.64571 3.9234 2.32597 3.79025 2.04694 3.52393 1.76876 3.25763 1.58853 2.91117 1.50626 2.48457L1.01774 0 0.28624 0 1.15641 4.45263 1.88792 4.45263 1.74925 3.76056C1.94771 4.02094 2.18009 4.21897 2.4464 4.35467 2.71356 4.49122 2.99937 4.55949 3.30385 4.55949 3.62699 4.55949 3.89245 4.47468 4.10024 4.30506 4.30888 4.13544 4.43439 3.89965 4.4768 3.59773 4.69901 3.91068 4.95641 4.149 5.24902 4.31269 5.54246 4.47723 5.85203 4.55949 6.17771 4.55949 6.55936 4.55949 6.85408 4.44966 7.06187 4.23 7.27051 4.01033 7.37483 3.69908 7.37483 3.29622 7.37483 3.20887 7.36931 3.1126 7.35829 3.00743 7.34811 2.90311 7.33242 2.79668 7.31122 2.68811Z" transform="matrix(1.00089 0 0 -1 144.426 100.131)"/><path d="M4.03917 2.74282C4.03917 3.13296 3.95436 3.43107 3.78474 3.63717 3.61511 3.8441 3.37127 3.94758 3.05323 3.94758 2.83611 3.94758 2.62875 3.89202 2.43114 3.78092 2.23353 3.66981 2.05796 3.50825 1.90445 3.29622 1.75349 3.08674 1.63263 2.83357 1.54188 2.53672 1.45198 2.23988 1.40703 1.94558 1.40703 1.65383 1.40703 1.2832 1.49184 0.997813 1.66146 0.797657 1.83109 0.5975 2.07238 0.497423 2.38534 0.497423 2.61603 0.497423 2.83018 0.551702 3.02779 0.660262 3.2254 0.768821 3.39418 0.926571 3.53411 1.13351 3.68508 1.35063 3.80679 1.60634 3.89923 1.90064 3.99253 2.19493 4.03917 2.47566 4.03917 2.74282ZM1.77342 3.7771C1.96933 4.03409 2.20044 4.22873 2.46676 4.36103 2.73307 4.49334 3.02948 4.55949 3.35602 4.55949 3.81145 4.55949 4.16511 4.41023 4.41701 4.11169 4.66891 3.814 4.79484 3.39629 4.79484 2.85859 4.79484 2.41841 4.7164 1.99902 4.55949 1.6004 4.40344 1.20178 4.17826 0.844728 3.88396 0.529227 3.68805 0.319741 3.46669 0.15987 3.21989 0.049615 2.97393-0.0606406 2.71441-0.115769 2.44132-0.115769 2.12581-0.115769 1.86078-0.0500391 1.64621 0.0814195 1.43162 0.212878 1.27133 0.408369 1.16532 0.667894L0.707332-1.69327-0.0241714-1.69327 1.17295 4.45263 1.90445 4.45263Z" transform="matrix(1.00089 0 0 -1 152.364 100.131)"/><path d="M326.9 58.6062C326.9 79.5426 326.9 100.325 326.9 120.951" stroke="#000000" stroke-width="0.415406" stroke-linecap="round" stroke-linejoin="round" fill="none" transform="matrix(1.00089 0 0 1 0 0.0380086)"/><path d="M329.227 116.299 326.9 120.951 324.574 116.299" stroke="#000000" stroke-width="0.415406" stroke-linecap="round" stroke-linejoin="round" fill="none" transform="matrix(1.00089 0 0 1 0 0.0380086)"/><path d="M326.9 30.7262C326.9 37.1839 326.9 43.7963 326.9 50.5636" stroke="#000000" stroke-width="0.415406" stroke-linecap="round" stroke-linejoin="round" fill="none" transform="matrix(1.00089 0 0 1 0 0.0380086)"/><path d="M324.574 35.3787 326.9 30.7262 329.227 35.3787" stroke="#000000" stroke-width="0.415406" stroke-linecap="round" stroke-linejoin="round" fill="none" transform="matrix(1.00089 0 0 1 0 0.0380086)"/><path d="M3.97647 7.34957 1.64656 0.954135 6.31001 0.954135ZM0.09087 0 3.32766 8.47998 4.62892 8.47998 7.86025 0Z" transform="matrix(1.00089 0 0 -1 319.506 53.992)"/><path d="M4.03281 5.53217C3.45731 5.53217 2.97448 5.32377 2.58435 4.90698 2.17119 4.47201 1.89676 3.89469 1.76106 3.175 1.60961 2.41411 1.65505 1.81377 1.89737 1.37395 2.13605 0.93899 2.53709 0.721507 3.10048 0.721507 3.65782 0.721507 4.14065 0.940807 4.54896 1.37941 4.96211 1.81921 5.24259 2.41775 5.39041 3.175 5.52248 3.86803 5.47098 4.44537 5.23593 4.90698 5.01663 5.32377 4.61559 5.53217 4.03281 5.53217ZM4.19637 6.36636 7.66761 6.3609 7.46224 5.31589 6.29366 5.31589C6.58807 4.72584 6.65593 4.01221 6.49721 3.175 6.29245 2.13424 5.87384 1.31822 5.24138 0.72696 4.6053 0.132065 3.83289-0.165384 2.92419-0.165384 2.01186-0.165384 1.35517 0.132065 0.954135 0.72696 0.553096 1.31822 0.454956 2.13424 0.659717 3.175 0.85963 4.21939 1.27582 5.03723 1.90826 5.62849 2.43411 6.1204 3.19681 6.36636 4.19637 6.36636Z" transform="matrix(1.00089 0 0 -1 327.47 53.992)"/></g></svg>